<svg width="39" height="39" viewBox="0 0 39 39" fill="none" xmlns="http://www.w3.org/2000/svg">
<path d="M13.6445 25.3148L25.3128 13.6465" stroke="#3BB77E" stroke-width="3" stroke-linecap="round" stroke-linejoin="round"/>
<path d="M14.6169 15.5912C15.1539 15.5912 15.5892 15.1559 15.5892 14.6188C15.5892 14.0818 15.1539 13.6465 14.6169 13.6465C14.0799 13.6465 13.6445 14.0818 13.6445 14.6188C13.6445 15.1559 14.0799 15.5912 14.6169 15.5912Z" fill="#3BB77E" stroke="#3BB77E" stroke-width="3" stroke-linecap="round" stroke-linejoin="round"/>
<path d="M24.3395 25.3146C24.8766 25.3146 25.3119 24.8792 25.3119 24.3422C25.3119 23.8052 24.8766 23.3699 24.3395 23.3699C23.8025 23.3699 23.3672 23.8052 23.3672 24.3422C23.3672 24.8792 23.8025 25.3146 24.3395 25.3146Z" fill="#3BB77E" stroke="#3BB77E" stroke-width="3" stroke-linecap="round" stroke-linejoin="round"/>
<path d="M5.86754 10.1459C5.86754 9.01122 6.3183 7.923 7.12065 7.12065C7.923 6.3183 9.01122 5.86754 10.1459 5.86754H12.0906C13.2203 5.86689 14.3039 5.41948 15.1049 4.62292L16.4662 3.26162C16.8638 2.86179 17.3365 2.54449 17.8572 2.32798C18.3778 2.11146 18.9361 2 19.5 2C20.0639 2 20.6222 2.11146 21.1428 2.32798C21.6635 2.54449 22.1362 2.86179 22.5338 3.26162L23.8951 4.62292C24.6961 5.41948 25.7797 5.86689 26.9094 5.86754H28.8541C29.9888 5.86754 31.077 6.3183 31.8794 7.12065C32.6817 7.923 33.1325 9.01122 33.1325 10.1459V12.0906C33.1331 13.2203 33.5805 14.3039 34.3771 15.1049L35.7384 16.4662C36.1382 16.8638 36.4555 17.3365 36.672 17.8572C36.8885 18.3778 37 18.9361 37 19.5C37 20.0639 36.8885 20.6222 36.672 21.1428C36.4555 21.6635 36.1382 22.1362 35.7384 22.5338L34.3771 23.8951C33.5805 24.6961 33.1331 25.7797 33.1325 26.9094V28.8541C33.1325 29.9888 32.6817 31.077 31.8794 31.8794C31.077 32.6817 29.9888 33.1325 28.8541 33.1325H26.9094C25.7797 33.1331 24.6961 33.5805 23.8951 34.3771L22.5338 35.7384C22.1362 36.1382 21.6635 36.4555 21.1428 36.672C20.6222 36.8885 20.0639 37 19.5 37C18.9361 37 18.3778 36.8885 17.8572 36.672C17.3365 36.4555 16.8638 36.1382 16.4662 35.7384L15.1049 34.3771C14.3039 33.5805 13.2203 33.1331 12.0906 33.1325H10.1459C9.01122 33.1325 7.923 32.6817 7.12065 31.8794C6.3183 31.077 5.86754 29.9888 5.86754 28.8541V26.9094C5.86689 25.7797 5.41948 24.6961 4.62292 23.8951L3.26162 22.5338C2.86179 22.1362 2.54449 21.6635 2.32798 21.1428C2.11146 20.6222 2 20.0639 2 19.5C2 18.9361 2.11146 18.3778 2.32798 17.8572C2.54449 17.3365 2.86179 16.8638 3.26162 16.4662L4.62292 15.1049C5.41948 14.3039 5.86689 13.2203 5.86754 12.0906V10.1459Z" stroke="#3BB77E" stroke-width="3" stroke-linecap="round" stroke-linejoin="round"/>
</svg>
