<svg width="25" height="24" viewBox="0 0 25 24" fill="none" xmlns="http://www.w3.org/2000/svg">
<path fill-rule="evenodd" clip-rule="evenodd" d="M5.28303 2.481C6.06096 2.15798 6.89501 1.9917 7.73734 1.9917C8.57967 1.9917 9.41371 2.15798 10.1916 2.481C10.9696 2.80402 11.6761 3.27743 12.2707 3.87408L12.274 3.87742L12.3323 3.93653L12.3907 3.87743L12.394 3.87408C12.9886 3.27743 13.6951 2.80402 14.473 2.481C15.251 2.15798 16.085 1.9917 16.9273 1.9917C17.7697 1.9917 18.6037 2.15798 19.3816 2.481C20.1593 2.80391 20.8656 3.2771 21.4601 3.87346C24.0051 6.41916 24.0617 10.6283 21.046 13.7005L21.0395 13.7071L13.0394 21.7071C12.8519 21.8946 12.5976 22 12.3323 22C12.0671 22 11.8128 21.8946 11.6252 21.7071L3.61867 13.7005C0.602974 10.6283 0.659594 6.41915 3.20462 3.87346C3.79908 3.2771 4.50537 2.80391 5.28303 2.481ZM7.73734 3.9917C7.15824 3.9917 6.58483 4.10602 6.05 4.32809C5.51517 4.55017 5.02945 4.87564 4.62067 5.28584L4.61944 5.28706C2.92583 6.98068 2.72209 9.92921 5.04285 12.2963L12.3323 19.5857L19.6218 12.2963C21.9426 9.92922 21.7388 6.98068 20.0452 5.28706L20.044 5.28584C19.6352 4.87564 19.1495 4.55017 18.6147 4.32809C18.0798 4.10602 17.5064 3.9917 16.9273 3.9917C16.3482 3.9917 15.7748 4.10602 15.24 4.32809C14.7059 4.54988 14.2207 4.87478 13.8123 5.28422C13.8117 5.28476 13.8112 5.2853 13.8107 5.28584L13.044 6.06249C12.8561 6.25282 12.5998 6.35996 12.3323 6.35996C12.0649 6.35996 11.8086 6.25282 11.6207 6.06249L10.854 5.28584C10.8535 5.2853 10.8529 5.28476 10.8524 5.28422C10.444 4.87478 9.9588 4.54988 9.42467 4.32809C8.88985 4.10602 8.31644 3.9917 7.73734 3.9917Z" fill="#253D4E"/>
</svg>
